# xmcd CD database file
#
# Track frame offsets:
#	150
#	23082
#	31707
#	49320
#	68077
#	87282
#	111730
#	139785
#	146007
#	167842
#	188440
#	204065
#	224377
#	240577
#
# Disc length: 3545 seconds
#
# Revision: 0
# Processed by: cddbd v1.5.1PL0 Copyright (c) Steve Scherf et al.
# Submitted via: CDex 1.51
#
DISCID=c10dd70e
DTITLE=押尾コータロー - BOLERO! Be HAPPY LIVE
DYEAR=2004
DGENRE=J-Pop
TTITLE0=ボレロ
TTITLE1=ブルー・ホール
TTITLE2=AQUA-MARINE
TTITLE3=Blue sky
TTITLE4=ミスティ・ナイト
TTITLE5=Breeze
TTITLE6=Merry Christmas Mr.Lawrence
TTITLE7=オールド・フレンド
TTITLE8=Dear...
TTITLE9=見上げてごらん夜の星を
TTITLE10=Busy2
TTITLE11=HARD RAIN
TTITLE12=翼〜you are the HERO〜
TTITLE13=ちいさな輝き
EXTD=YEAR: 2004
EXTT0=
EXTT1=
EXTT2=
EXTT3=
EXTT4=
EXTT5=
EXTT6=
EXTT7=
EXTT8=
EXTT9=
EXTT10=
EXTT11=
EXTT12=
EXTT13=
PLAYORDER=
